<svg xmlns="http://www.w3.org/2000/svg" width="385" height="90" viewBox="0 0 77 18"><path fill="#fff" d="M 14.09007,15.51385 H 4.5263376 l 1.0422563,-2.7027 h 9.5605831 z"/><path fill="#e60012" d="M9.00963 14.3985h.668l-.027-.797Z"/><path fill="#e60012" d="M12.82163 10.1055c-1.783 1.734-4.444.625-4.172-1.502.207-1.644 2.222-3.278 3.744-4.165.006-.006.006-.015.001-.021-.199-.188-.612-.62-.882-.941-.737-.89-2.03-.925-2.798.05l-4.382.407c-.019 0-.019.026 0 .028l4.696.271c.833.046 1.105.804.302 1.412-2.984 2.262-3.516 4.652-2.85 6.551.005.012-.013.021-.02.01-.276-.389-.479-.864-.592-1.362-1.433-.898-2.597-2.613-2.597-4.731 0-3.077 2.508-5.61 5.61-5.61 3.1 0 5.609 2.533 5.609 5.61 0 1.665-.73 3.077-1.669 3.993m1.097 5.262h-2.697l.957-2.492h1.187l-.755 1.964h1.511Zm-4.204 0-.02-.491h-1.072l-.396.491h-.98l1.991-2.307c.095-.111.235-.185.365-.185h1.063l.237 2.492zm-4.068.082c-.319 0-.596-.031-.825-.082l.202-.53c.543.065 1.012.018 1.192-.459l.579-1.503h1.187l-.637 1.658c-.326.847-1.127.916-1.698.916m11.913-5.68c.057-.553.042-1.344-.044-1.93 0-.011-.01-.011-.014 0-.18.85-.728 1.998-1.914 2.936-.011.01-.023-.004-.014-.014 1.04-1.111 1.662-2.483 1.76-3.892-.199-.778-.503-1.53-.887-2.194-.005-.006-.015-.004-.012.006.21 1.426-.128 3.309-1.509 4.836-.009.01-.024 0-.017-.014 1.193-1.712 1.501-3.801.982-5.679-1.589-2.145-4.135-3.539-7.009-3.539-2.873 0-5.421 1.394-7.009 3.539-.52 1.878-.211 3.967.98 5.679.008.014-.007.024-.016.014-1.381-1.527-1.718-3.41-1.507-4.836.001-.01-.009-.012-.015-.006-.383.664-.687 1.416-.884 2.194.096 1.409.717 2.781 1.759 3.892.01.01-.005.024-.014.014-1.187-.938-1.737-2.086-1.915-2.936-.002-.011-.016-.011-.016 0-.084.586-.099 1.377-.042 1.93.3.938.94 1.725 1.595 2.291.011.012 0 .024-.013.018-.732-.455-1.14-.901-1.418-1.293-.007-.01-.017-.006-.014.004.806 3.914 4.312 6.925 8.529 6.925 4.216 0 7.725-3.011 8.528-6.925.003-.01-.007-.014-.012-.004-.278.392-.688.838-1.421 1.293-.012.006-.022-.006-.011-.018.655-.566 1.294-1.353 1.594-2.291"/><path d="M56.31663 7.5108h-1.919l-1.61-2.94-1.128 2.94h-1.916l1.911-4.977h2.229l1.422 2.614 1.003-2.614h1.919z"/><path d="M27.49463 5.8438c-.647 1.692-2.252 1.835-3.394 1.835-.636 0-1.191-.066-1.648-.168l.405-1.056c1.088.127 2.017.033 2.381-.917l1.154-3.004h2.374l-1.272 3.31"/><path d="M41.11363 4.1192c-.14.364-.589.63-1.018.63h-1.317l.482-1.26h1.322c.432 0 .672.266.531.63m-.167-1.585h-3.692l-1.911 4.977h2.373l.695-1.807h1.319c2.194 0 3.375-.586 3.757-1.585.383-.998-.349-1.585-2.541-1.585"/><path d="m30.96063 5.5752 1.276-1.591.061 1.591Zm3.308-3.042h-2.123c-.258 0-.54.151-.732.37l-3.975 4.608h1.961l.79-.98h2.14l.039.98h2.374l-.474-4.978"/><path d="m45.35963 5.5752 1.277-1.591.06 1.591Zm3.307-3.042h-2.122c-.259 0-.541.151-.731.37l-3.975 4.608h1.96l.788-.98h2.144l.039.98h2.371l-.474-4.978"/><path d="M76.18263 13.9122c-.499 1.303-2.23 1.705-4.097 1.705-1.869 0-3.065-.404-2.786-1.705h2.372c-.059.348.15.568.852.568.701 0 1.153-.224 1.285-.568.327-.852-4.368-.02-3.619-1.967.416-1.09 2.064-1.601 3.922-1.601 1.86 0 2.914.4 2.69 1.601h-2.326c.036-.322-.062-.566-.76-.566-.702 0-1.076.248-1.199.566-.334.867 4.411.024 3.666 1.967"/><path d="M34.64563 15.4708h-2.375l1.911-4.977h2.372z"/><path d="M52.59963 15.4708h-2.374l1.909-4.977h2.374z"/><path d="M67.88963 15.4708h-5.77l1.911-4.977h5.77l-.368.956h-3.397l-.386 1.005h2.827l-.368.952h-2.825l-.387 1.009h3.396z"/><path d="M60.64563 15.4708h-1.918l-1.61-2.939-1.128 2.939h-1.916l1.909-4.977h2.23l1.421 2.616 1.005-2.616h1.917Z"/><path d="M41.88763 12.0801c-.14.363-.586.629-1.02.629h-1.318l.485-1.26h1.321c.431 0 .671.268.532.631m-.169-1.586h-3.69l-1.912 4.977h2.374l.693-1.807h.717l.468 1.807h2.593l-.634-1.987c1.05-.246 1.676-.73 1.932-1.404.383-.996-.345-1.586-2.541-1.586"/><path d="m46.91563 14.4161 1.511-3.922h-2.374l-1.909 4.977h5.386l.406-1.055Z"/><path d="m27.88563 13.5352 1.277-1.59.059 1.59Zm3.307-3.041h-2.123c-.256 0-.54.15-.73.369l-3.975 4.608h1.959l.791-.979h2.142l.038.979h2.374l-.476-4.977"/></svg>