<svg xmlns="http://www.w3.org/2000/svg" width="250" height="45" viewBox="0 0 250 45">
  <g id="グループ_3306" data-name="グループ 3306" transform="translate(23962 11350)">
    <path id="合体_1" data-name="合体 1" d="M13.742,43.232A22.575,22.575,0,1,1,22.5,45,22.425,22.425,0,0,1,13.742,43.232ZM22.5,41.9A19.381,19.381,0,0,0,41.9,22.5l-9.186,5.532L15.275,40.506A19.269,19.269,0,0,0,22.5,41.9ZM8.784,36.216a19.331,19.331,0,0,0,6.166,4.157q.158.067.318.131L26.446,25.239,22.271,22.5,6.686,33.738A19.509,19.509,0,0,0,8.784,36.216ZM4.628,14.95A19.387,19.387,0,0,0,6.684,33.734L16.949,19.768,5.756,12.7A19.4,19.4,0,0,0,4.628,14.95ZM41.9,22.5a19.341,19.341,0,0,0-2.653-9.8l-16.6,9.537-.366.264Zm-2.659-9.81a19.412,19.412,0,0,0-33.476,0Z" transform="translate(-23962 -11350)" fill="#e70900"/>
    <path id="パス_5440" data-name="パス 5440" d="M.666-20.8H20.011v4.582H13.52V-2.242H7.156V-16.215H.666Zm20.441,9.29a9.034,9.034,0,0,1,2.81-7.075q2.81-2.531,7.825-2.531,5.142,0,7.924,2.487a8.862,8.862,0,0,1,2.782,6.967,10.476,10.476,0,0,1-1.215,5.335,8.256,8.256,0,0,1-3.512,3.24A12.65,12.65,0,0,1,32-1.925a14.434,14.434,0,0,1-5.767-1,8.378,8.378,0,0,1-3.7-3.164A9.682,9.682,0,0,1,21.107-11.506Zm6.364.025A5.775,5.775,0,0,0,28.63-7.444a4.13,4.13,0,0,0,3.154,1.228,4.133,4.133,0,0,0,3.175-1.2q1.124-1.2,1.124-4.316a5.338,5.338,0,0,0-1.173-3.829,4.229,4.229,0,0,0-3.182-1.209,4.064,4.064,0,0,0-3.091,1.228A5.8,5.8,0,0,0,27.471-11.481ZM41.843-20.8H48.91l4.159,6.265L57.227-20.8h7.025L56.244-10.013v7.771H49.865v-7.771Zm21.931,9.29a9.034,9.034,0,0,1,2.81-7.075q2.81-2.531,7.825-2.531,5.142,0,7.924,2.487a8.862,8.862,0,0,1,2.782,6.967A10.476,10.476,0,0,1,83.9-6.324a8.256,8.256,0,0,1-3.512,3.24,12.65,12.65,0,0,1-5.725,1.158,14.434,14.434,0,0,1-5.767-1,8.378,8.378,0,0,1-3.7-3.164A9.682,9.682,0,0,1,63.774-11.506Zm6.364.025A5.775,5.775,0,0,0,71.3-7.444a4.13,4.13,0,0,0,3.154,1.228,4.133,4.133,0,0,0,3.175-1.2q1.124-1.2,1.124-4.316a5.338,5.338,0,0,0-1.173-3.829A4.229,4.229,0,0,0,74.4-16.772,4.064,4.064,0,0,0,71.3-15.544,5.8,5.8,0,0,0,70.138-11.481ZM86.351-20.8H105.7v4.582H99.206V-2.242H92.842V-16.215H86.351Zm22.212,0h17.056v3.962H114.941v2.949h9.9V-10.1h-9.9v3.658h10.986v4.2H108.563Zm19.346,0h19.346v4.582h-6.491V-2.242H134.4V-16.215h-6.491ZM149.024-8.38l6.055-.342a3.915,3.915,0,0,0,.8,2.025,3.53,3.53,0,0,0,2.81,1.126,3.347,3.347,0,0,0,2.1-.576,1.67,1.67,0,0,0,.738-1.335,1.646,1.646,0,0,0-.7-1.291,8.685,8.685,0,0,0-3.259-1.076,14.669,14.669,0,0,1-5.971-2.253,4.355,4.355,0,0,1-1.8-3.582,4.531,4.531,0,0,1,.92-2.7,6.023,6.023,0,0,1,2.768-2,14.207,14.207,0,0,1,5.065-.728,11.253,11.253,0,0,1,6.02,1.323,5.58,5.58,0,0,1,2.466,4.208l-6,.316a2.818,2.818,0,0,0-1-1.823,3.476,3.476,0,0,0-2.114-.57,2.754,2.754,0,0,0-1.672.424,1.257,1.257,0,0,0-.562,1.032,1,1,0,0,0,.464.8,5.577,5.577,0,0,0,2.135.683,28.9,28.9,0,0,1,5.978,1.639,6.128,6.128,0,0,1,2.627,2.057,4.827,4.827,0,0,1,.822,2.746,5.474,5.474,0,0,1-1.1,3.291A6.742,6.742,0,0,1,163.551-2.7a13.589,13.589,0,0,1-4.959.778q-5.254,0-7.277-1.823A6.887,6.887,0,0,1,149.024-8.38ZM184.315-20.8h6.35V-9.735a8.49,8.49,0,0,1-.569,3.107,6.659,6.659,0,0,1-1.784,2.557,7.219,7.219,0,0,1-2.55,1.538,14.117,14.117,0,0,1-4.454.62,31.044,31.044,0,0,1-3.28-.19,9.309,9.309,0,0,1-2.971-.753,7.348,7.348,0,0,1-2.185-1.6A5.76,5.76,0,0,1,171.517-6.6a10.1,10.1,0,0,1-.59-3.139V-20.8h6.35V-9.469a3.054,3.054,0,0,0,.934,2.373,3.7,3.7,0,0,0,2.592.854,3.712,3.712,0,0,0,2.578-.842,3.046,3.046,0,0,0,.934-2.386Z" transform="translate(-23902.666 -11316.887)" fill="#e80000"/>
  </g>
</svg>